# xmcd
# Track frame offsets:
# 150
# 16179
# 30546
# 45865
# 60561
# 74156
# 88643
# 102193
# 115344
# 128252
# 142494
# 157960
# 170358
# 185188
# 199961
# 214115
# 228073
# 239088
# 255309
# 269435
# 282521
# 294477
# 309075
#
# Disc length: 4308 seconds
# Revision: 0
# Processed by: cddbd v1.4PL0 Copyright (c) Steve Scherf et al.
# Submitted via: VisiTrax 2.9.2.167 - For more info visit www.synapsa.com
#
DISCID=4c10d217
DTITLE=Various Artist - Down On The Levee: The Piano Blues Of St. Louis, Vol
DTITLE=ume 2
DYEAR=1900
DGENRE=
TTITLE0=Henry Brown - Stomp 'Em Down To The Bricks
TTITLE1=Henry Brown - Deep Morgan Blues
TTITLE2=Pinetop and Lindberg - Louisiana Bound
TTITLE3=Henry Brown - Eastern Chimes Blues
TTITLE4=Mary Johnson - Those Blackman Blues
TTITLE5=Peetie Wheatstraw - Don't Feel Welcome
TTITLE6=Blind Squire Turner - Pitty Pat
TTITLE7=Roosevelt Sykes - Cotton Seed Blues
TTITLE8=Eddie Miller - Freight Train Blues
TTITLE9=Doretha Trowbridge - Slavin' Mama Blues
TTITLE10=Lonnie Johnson - She Don't Know Who She Wants
TTITLE11=Charles 'Specks' Pertum - Weak Eyed Blues
TTITLE12=Wesley Wallace - Fanny Lee Blues
TTITLE13=Wesley Wallace - No. 29
TTITLE14=El-Zee Floyd - Snowbound And Blue
TTITLE15=Pinetop and Lindberg - Believe I'll Make A Change
TTITLE16=Stump Johnson - Steady Grindin'
TTITLE17=Sparks Brothers - Down On The Levee
TTITLE18=St. Louis Jimmy - That's All I Think
TTITLE19=Alice Moore - Tomorrow Blues
TTITLE20=Stump Johnson - Money Johnson
TTITLE21=Sparks Brothers - Chicago's Too Much For Me
TTITLE22=Aaron 'Pinetop' Sparks - Tell Her About Me
EXTD=c 2003 Yazoo Records\n\nBob Hall  -  Liner Notes \nRichard Nevin
EXTD=s  -  Remastering \nFrancis Wilford-Smith  -  Producer
EXTT0=AMG Review\n\nThis release follows Yazoo's Twenty First St. Stomp as t
EXTT0=he second volume focusing on the spirit and sound of St. Louis piano b
EXTT0=lues. Down on the Levee gathers together over 20 different recording
EXTT0=s from the '20s and '30s, ranging from such well-known and revered art
EXTT0=ists as Roosevelt Sykes and Lonnie Johnson (heard here on one cut each
EXTT0=) to less familiar St. Louis mainstays like Wesley Wallace and Alice M
EXTT0=oore. Continuing with the artists heard on the first volume, Down on t
EXTT0=he Levee especially offers more selections from Henry Brown and the Sp
EXTT0=arks Brothers (also billed as Pinetop and Lindberg). In all, this collec
EXTT0=tion presents a good sampling of early St. Louis piano blues with abou
EXTT0=t average surface noise.  Joslyn Layne
EXTT1=
EXTT2=
EXTT3=
EXTT4=
EXTT5=
EXTT6=
EXTT7=
EXTT8=
EXTT9=
EXTT10=
EXTT11=
EXTT12=
EXTT13=
EXTT14=
EXTT15=
EXTT16=
EXTT17=
EXTT18=
EXTT19=
EXTT20=
EXTT21=
EXTT22=
PLAYORDER=
